<?xml version="1.0" encoding="UTF-8" standalone="no"?>
<svg
   xmlns:dc="http://purl.org/dc/elements/1.1/"
   xmlns:cc="http://creativecommons.org/ns#"
   xmlns:rdf="http://www.w3.org/1999/02/22-rdf-syntax-ns#"
   xmlns:svg="http://www.w3.org/2000/svg"
   xmlns="http://www.w3.org/2000/svg"
   xmlns:sodipodi="http://sodipodi.sourceforge.net/DTD/sodipodi-0.dtd"
   xmlns:inkscape="http://www.inkscape.org/namespaces/inkscape"
   width="94.941994mm"
   height="128.75623mm"
   version="1.1"
   viewBox="0 0 94.941994 128.75623"
   sodipodi:docname="hollowbody.svg"
   inkscape:version="0.92.4 (5da689c313, 2019-01-14)">
  <defs
     id="defs4564" />
  <sodipodi:namedview
     pagecolor="#ffffff"
     bordercolor="#666666"
     borderopacity="1"
     objecttolerance="10"
     gridtolerance="10"
     guidetolerance="10"
     inkscape:pageopacity="0"
     inkscape:pageshadow="2"
     inkscape:window-width="732"
     inkscape:window-height="480"
     id="namedview4562"
     showgrid="false"
     inkscape:zoom="0.2102413"
     inkscape:cx="247.69687"
     inkscape:cy="1.7188085"
     inkscape:window-x="0"
     inkscape:window-y="0"
     inkscape:window-maximized="0"
     inkscape:current-layer="svg4560" />
  <metadata
     id="metadata4554">
    <rdf:RDF>
      <cc:Work
         rdf:about="">
        <dc:format>image/svg+xml</dc:format>
        <dc:type
           rdf:resource="http://purl.org/dc/dcmitype/StillImage" />
        <dc:title />
      </cc:Work>
    </rdf:RDF>
  </metadata>
  <g
     transform="matrix(0.035278,0,0,-0.035278,-3.2805362,143.58146)"
     id="g4558">
    <path
	   fill="#16232d"
       d="m 1260,3805 c 0,-222 -3,-271 -16,-307 -23,-59 -58,-94 -109,-108 -91,-26 -167,16 -216,117 -52,108 -84,150 -125,163 -152,50 -298,-105 -311,-330 -7,-118 12,-189 104,-388 67,-145 78,-176 81,-235 6,-102 -20,-147 -186,-318 C 194,2102 119,1957 98,1662 82,1432 102,1317 192,1136 282,953 428,785 591,677 691,611 855,539 985,505 c 91,-25 294,-55 364,-55 22,0 44,-6 51,-15 16,-19 69,-20 76,-1 3,9 35,15 107,20 282,18 568,116 759,261 204,154 371,399 424,621 18,75 24,266 12,399 -18,210 -122,398 -349,630 -159,163 -187,198 -205,263 -24,81 -9,145 71,312 36,76 74,164 85,196 59,171 21,364 -94,472 -80,76 -147,89 -222,43 -22,-14 -45,-45 -73,-103 -51,-101 -56,-109 -105,-142 -29,-19 -51,-26 -87,-26 -61,0 -90,11 -143,56 l -43,36 -7,232 c -4,127 -9,261 -13,299 l -6,67 H 1260 Z M 923,2268 c 59,-31 96,-122 68,-167 -11,-18 -53,-22 -63,-7 -12,17 -9,54 4,76 11,17 8,24 -22,55 -19,19 -40,35 -47,35 -27,0 -72,-57 -94,-120 -20,-58 -23,-89 -27,-289 -3,-198 -2,-226 12,-237 14,-10 15,-13 1,-24 -10,-9 -15,-31 -15,-73 0,-58 -4,-77 -37,-199 -22.699,-84.917 -89.516,-135.32 -133,-178 -33,-33 -116,-49 -163,-31 -46.683,15.596 -68.027,64.762 -81,74 -29,22 -32,86 -4,127 25,38 55,48 87,30 26,-13 28,-65 5,-98 -8,-12 -13,-30 -10,-40 7,-21 62.053,-73.477 75.053,-73.477 21,0 69.947,52.477 97.947,112.48 17,35 38,96 47,135 22,93 34,239 23,261 -7,10 -6,23 2,34 6,12 11,66 11,140 0,66 4,128 9,137 5,9 12,42 16,72 9,74 42,159 74,193 52,57 119,79 164,55 z m 1162,-9 c 47,-26 55,-35 93,-114 27,-55 33,-79 49,-179 3,-17 7,-87 9,-156 4,-100 8,-127 21,-137 13,-10 13,-15 4,-27 -17,-21 -12,-156 10,-246 10,-41 19,-81 19,-88 0,-30 67,-146 98,-170 l 31.106,-10.795 L 2460,1155 c 43,42 48,59 25,89 -19,25 -19,73 -1,92 35,34 97,0 112,-63 9,-33 -22,-102 -59,-134 -45,-40 -91,-45 -161,-19 -76,29 -118,68 -155,144 -36,73 -51,133 -58,236 -3,41 -10,81 -16,88 -7,9 -6,17 4,27 23,23 8,451 -18,521 -25,68 -49,102 -79,116 -22,10 -28,8 -60,-23 -25,-25 -33,-39 -29,-54 16,-52 14,-74 -7,-90 -19,-13 -24,-13 -37,-1 -18,19 -16,110 4,139 26.968,34.547 61.515,53.016 100,57 11,0 38,-10 60,-21 z"
       id="path4556"
       inkscape:connector-curvature="0" />
  </g>
</svg>
