<?xml version="1.0" encoding="UTF-8" standalone="no"?>
<!-- Created with Inkscape (http://www.inkscape.org/) -->

<svg
   xmlns:dc="http://purl.org/dc/elements/1.1/"
   xmlns:cc="http://creativecommons.org/ns#"
   xmlns:rdf="http://www.w3.org/1999/02/22-rdf-syntax-ns#"
   xmlns:svg="http://www.w3.org/2000/svg"
   xmlns="http://www.w3.org/2000/svg"
   xmlns:sodipodi="http://sodipodi.sourceforge.net/DTD/sodipodi-0.dtd"
   xmlns:inkscape="http://www.inkscape.org/namespaces/inkscape"
   width="72.282997mm"
   height="110.06667mm"
   viewBox="0 0 72.282997 110.06667"
   version="1.1"
   sodipodi:docname="sstyle.svg"
   inkscape:version="0.92.4 (5da689c313, 2019-01-14)">
  <defs
     id="defs5676" />
  <sodipodi:namedview
     id="base"
     pagecolor="#ffffff"
     bordercolor="#666666"
     borderopacity="1.0"
     inkscape:pageopacity="0.0"
     inkscape:pageshadow="2"
     inkscape:zoom="0.98994949"
     inkscape:cx="-92.062121"
     inkscape:cy="166.45805"
     inkscape:document-units="mm"
     inkscape:current-layer="layer1"
     showgrid="false"
     inkscape:window-width="1920"
     inkscape:window-height="1017"
     inkscape:window-x="-8"
     inkscape:window-y="-8"
     inkscape:window-maximized="1" />
  <metadata
     id="metadata5679">
    <rdf:RDF>
      <cc:Work
         rdf:about="">
        <dc:format>image/svg+xml</dc:format>
        <dc:type
           rdf:resource="http://purl.org/dc/dcmitype/StillImage" />
        <dc:title />
      </cc:Work>
    </rdf:RDF>
  </metadata>
  <g
     inkscape:label="Layer 1"
     inkscape:groupmode="layer"
     id="layer1"
     transform="translate(-51.771421,-105.6592)">
    <g
       id="g6259"
       transform="matrix(0.03527778,0,0,-0.03527778,36.979179,232.30643)"
       style="fill:#000000;stroke:none">
      <path
		 fill="#16232d"
         id="path6257"
         d="m 1280,3339 v -251 l -31,-43 c -18,-24 -48,-52 -67,-61 -33,-16 -39,-16 -90,1 -66,21 -132,78 -162,142 -14,30 -26,86 -34,163 -9,77 -19,128 -32,150 -14,24 -16,34 -6,37 13,5 17,29 5,36 -5,3 -23,8 -40,12 -28,6 -33,4 -33,-13 0,-14 -16,-27 -52,-45 -90,-44 -135,-123 -158,-272 -22,-145 4,-329 90,-640 53,-193 61,-288 32,-402 -20,-78 -32,-111 -120,-323 -60,-145 -118,-326 -131,-415 -7,-44 -17,-99 -22,-122 -22.99489,-104.3193 0.37906,-192.5944 14,-279 3,-20 18,-68 33,-108 23,-59 40,-83 103,-146 150,-149 356,-220 694,-237 89,-4 125,-9 117,-17 -23,-23 -10,-36 35,-36 45,0 58,13 34,37 -7,7 51,12 203,16 186,4 225,8 309,30 230,60 370,173 447,359 40,98 55,193 49,308 -10,183 -32,258 -157,535 -126,279 -123,269 -128,385 -4,96 -2,112 23,180 98,270 115,327 121,415 8,108 -11,195 -57,266 -49,77 -113,95 -166,47 -26,-24 -38,-53 -58,-141 -17,-78 -43,-132 -77,-164 -63,-59 -181,-74 -264,-32 -97,48 -102,70 -109,474 -3,154 -8,308 -11,343 l -6,62 h -149 -149 z"
         inkscape:connector-curvature="0"
         sodipodi:nodetypes="cccccccccccscccccccccccsssccccccccccccccccccc" />
    </g>
  </g>
</svg>
